<svg xmlns="http://www.w3.org/2000/svg" xmlns:xlink="http://www.w3.org/1999/xlink" viewBox="0 0 471.29 299.07"><defs><style>.cls-1,.cls-10,.cls-11,.cls-12,.cls-13,.cls-14,.cls-7,.cls-8{fill:none;}.cls-2{clip-path:url(#clip-path);}.cls-3,.cls-5{font-size:11.04px;}.cls-3{fill:#f60;font-family:Arial-BoldMT, Arial;font-weight:700;}.cls-4{letter-spacing:-0.01em;}.cls-16,.cls-18,.cls-5{font-family:ArialMT, Arial;}.cls-6{fill:#fff;}.cls-7{stroke:#000;stroke-width:0.25px;}.cls-10,.cls-11,.cls-12,.cls-13,.cls-14,.cls-7,.cls-8{stroke-linejoin:round;}.cls-8{stroke:gray;}.cls-9{clip-path:url(#clip-path-4);}.cls-10{stroke:navy;}.cls-10,.cls-11,.cls-12,.cls-13,.cls-14{stroke-linecap:round;stroke-width:3px;}.cls-11{stroke:#f0f;}.cls-12{stroke:#ff0;}.cls-13{stroke:aqua;}.cls-14{stroke:red;}.cls-15{clip-path:url(#clip-path-8);}.cls-16{font-size:9.96px;}.cls-17{letter-spacing:0.01em;}.cls-18{font-size:9.98px;}.cls-19{letter-spacing:0em;}.cls-20{letter-spacing:0.01em;}.cls-21{letter-spacing:0em;}.cls-22{letter-spacing:0em;}.cls-23{letter-spacing:0.01em;}.cls-24{letter-spacing:-0.01em;}.cls-25{letter-spacing:0em;}.cls-26{letter-spacing:0.01em;}.cls-27{letter-spacing:0em;}.cls-28{letter-spacing:0em;}.cls-29{letter-spacing:0.01em;}.cls-30{letter-spacing:0.01em;}.cls-31{letter-spacing:0em;}.cls-32{letter-spacing:0em;}.cls-33{letter-spacing:-0.01em;}.cls-34{letter-spacing:0em;}.cls-35{letter-spacing:0em;}.cls-36{letter-spacing:-0.01em;}.cls-37{letter-spacing:0.01em;}.cls-38{letter-spacing:0em;}.cls-39{letter-spacing:0em;}.cls-40{letter-spacing:0.01em;}.cls-41{letter-spacing:0.01em;}.cls-42{letter-spacing:0.01em;}.cls-43{letter-spacing:-0.01em;}.cls-44{letter-spacing:0.01em;}.cls-45{letter-spacing:0em;}.cls-46{letter-spacing:0em;}.cls-47{letter-spacing:-0.01em;}.cls-48{letter-spacing:0em;}</style><clipPath id="clip-path" transform="translate(-71.87 -191.79)"><rect class="cls-1" width="612" height="792"/></clipPath><clipPath id="clip-path-4" transform="translate(-71.87 -191.79)"><rect class="cls-1" x="121.56" y="226.68" width="411.36" height="196.44"/></clipPath><clipPath id="clip-path-8" transform="translate(-71.87 -191.79)"><rect class="cls-1" x="72" y="204.24" width="468" height="270.84"/></clipPath></defs><g id="图层_2" data-name="图层 2"><g id="图层_1-2" data-name="图层 1"><g class="cls-2"><text class="cls-3" transform="translate(12.75 9.47)">Figure 1<tspan class="cls-4" x="42.94" y="0">5</tspan><tspan x="48.96" y="0">.</tspan></text></g><g class="cls-2"><text class="cls-5" transform="translate(468.22 284.2)"> </text></g><g class="cls-2"><text class="cls-5" transform="translate(234.29 295.48)"> </text></g><rect class="cls-6" x="0.13" y="12.57" width="468" height="270.75"/><path class="cls-7" d="M121.59,226.78H532.17M121.59,248.52H532.17M121.59,270.24H532.17M121.59,292H532.17M121.59,313.68H532.17M121.59,335.52H532.17M121.59,357.24H532.17M121.59,379H532.17M121.59,400.68H532.17" transform="translate(-71.87 -191.79)"/><rect class="cls-8" x="49.71" y="34.99" width="410.58" height="195.64"/><line class="cls-7" x1="49.71" y1="230.63" x2="49.71" y2="34.99"/><path class="cls-7" d="M118.57,226.78h3m-3,21.74h3m-3,21.72h3m-3,21.72h3m-3,21.72h3m-3,21.84h3m-3,21.72h3m-3,21.72h3m-3,21.72h3m-3,21.74h3" transform="translate(-71.87 -191.79)"/><line class="cls-7" x1="49.71" y1="230.63" x2="460.29" y2="230.63"/><path class="cls-7" d="M532.17,422.42v3m-17.13-3v3m-17-3v3m-17.16-3v3m-17-3v3m-17.16-3v3m-17.16-3v3m-17-3v3m-17.16-3v3m-17-3v3m-17.16-3v3m-17-3v3m-17.16-3v3m-17.16-3v3m-17-3v3m-17.16-3v3m-17-3v3m-17.16-3v3m-17-3v3m-17.16-3v3m-17-3v3m-17.16-3v3m-17.16-3v3m-17-3v3m-17.13-3v3" transform="translate(-71.87 -191.79)"/><g class="cls-9"><polyline class="cls-10" points="58.27 227.97 75.36 229.29 92.53 229.41 109.56 230.08 126.72 223.29 143.76 208.65 160.93 184.41 177.97 158.59 195.13 185.37 212.28 211.65 229.32 220.41 246.49 219.69 263.52 214.77 280.69 214.53 297.73 210.69 314.88 197.61 332.05 179.85 349.08 171.57 366.25 198.33 383.29 212.01 400.44 217.53 417.49 220.05 434.64 221.73 451.75 223.41"/></g><g class="cls-9"><polyline class="cls-11" points="58.27 229.65 75.36 230.01 92.53 230.43 109.56 230.37 126.72 229.41 143.76 226.65 160.93 214.41 177.97 177.33 195.13 177.09 212.28 167.73 229.32 151.65 246.49 143.61 263.52 144.33 280.69 150.57 297.73 146.61 314.88 142.94 332.05 156.57 349.08 168.93 366.25 188.37 383.29 203.97 400.44 212.37 417.49 220.05 434.64 224.73 451.75 227.85"/></g><g class="cls-9"><polyline class="cls-12" points="58.27 230.37 75.36 230.61 92.53 230.62 109.56 230.61 126.72 230.61 143.76 230.25 160.93 227.85 177.97 220.65 195.13 220.65 212.28 220.24 229.32 221.73 246.49 223.53 263.52 221.37 280.69 224.13 297.73 224.97 314.88 224.01 332.05 224.37 349.08 223.41 366.25 222.33 383.29 225.93 400.44 225.93 417.49 227.61 434.64 229.41 451.75 230.13"/></g><g class="cls-9"><polyline class="cls-13" points="58.27 228.45 75.36 229.29 92.53 230.13 109.56 230.44 126.72 229.29 143.76 226.53 160.93 222.81 177.97 216.33 195.13 209.97 212.28 206.85 229.32 202.53 246.49 195.09 263.52 193.41 280.69 198.81 297.73 200.61 314.88 199.65 332.05 195.09 349.08 188.49 366.25 188.19 383.29 198.09 400.44 206.73 417.49 214.53 434.64 220.65 451.75 225.45"/></g><polyline class="cls-14" points="58.27 224.37 75.36 227.13 92.53 228.69 109.56 229.57 126.72 219.45 143.76 198.33 160.93 153.45 177.97 73.65 195.13 92.61 212.28 105.45 229.32 94.89 246.49 80.25 263.52 72.09 280.69 86.85 297.73 81.33 314.88 63.69 332.05 55.65 349.08 53.41 366.25 100.41 383.29 145.05 400.44 168.45 417.49 188.85 434.64 203.61 451.75 214.29"/><g class="cls-15"><text class="cls-16" transform="translate(18.34 233.83)">0<tspan class="cls-17" x="5.54" y="0">.</tspan><tspan x="8.39" y="0">0%</tspan></text></g><g class="cls-15"><text class="cls-16" transform="translate(18.34 212.08)">1<tspan class="cls-17" x="5.54" y="0">.</tspan><tspan x="8.39" y="0">0%</tspan></text></g><g class="cls-15"><text class="cls-16" transform="translate(18.34 190.34)">2<tspan class="cls-17" x="5.54" y="0">.</tspan><tspan x="8.39" y="0">0%</tspan></text></g><g class="cls-15"><text class="cls-16" transform="translate(18.34 168.59)">3<tspan class="cls-17" x="5.54" y="0">.</tspan><tspan x="8.39" y="0">0%</tspan></text></g><g class="cls-15"><text class="cls-16" transform="translate(18.34 146.85)">4<tspan class="cls-17" x="5.54" y="0">.</tspan><tspan x="8.39" y="0">0%</tspan></text></g><g class="cls-15"><text class="cls-16" transform="translate(18.34 125.11)">5<tspan class="cls-17" x="5.54" y="0">.</tspan><tspan x="8.39" y="0">0%</tspan></text></g><g class="cls-15"><text class="cls-18" transform="translate(18.34 103.36)"><tspan class="cls-19">6</tspan><tspan class="cls-20" x="5.52" y="0">.</tspan><tspan class="cls-21" x="8.39" y="0">0</tspan><tspan x="13.91" y="0">%</tspan></text></g><g class="cls-15"><text class="cls-16" transform="translate(18.34 81.64)">7<tspan class="cls-17" x="5.54" y="0">.</tspan><tspan x="8.39" y="0">0%</tspan></text></g><g class="cls-15"><text class="cls-16" transform="translate(18.34 59.9)">8<tspan class="cls-17" x="5.54" y="0">.</tspan><tspan x="8.39" y="0">0%</tspan></text></g><g class="cls-15"><text class="cls-16" transform="translate(18.34 38.15)">9<tspan class="cls-17" x="5.54" y="0">.</tspan><tspan x="8.39" y="0">0%</tspan></text></g><g class="cls-15"><text class="cls-16" transform="translate(39.38 245.73)">M<tspan class="cls-22" x="8.3" y="0">i</tspan><tspan x="10.54" y="0">d</tspan><tspan class="cls-23" x="16.08" y="0">n</tspan><tspan class="cls-24" x="21.68" y="0">i</tspan><tspan x="23.84" y="0">g</tspan><tspan class="cls-23" x="29.38" y="0">h</tspan><tspan x="34.98" y="0">t</tspan></text></g><g class="cls-15"><text class="cls-16" transform="translate(72.62 245.73)">1</text></g><g class="cls-15"><text class="cls-16" transform="translate(89.75 245.73)">2</text></g><g class="cls-15"><text class="cls-16" transform="translate(106.85 245.73)">3</text></g><g class="cls-15"><text class="cls-16" transform="translate(123.96 245.73)">4</text></g><g class="cls-15"><text class="cls-16" transform="translate(141.08 245.73)">5</text></g><g class="cls-15"><text class="cls-16" transform="translate(158.17 245.73)">6</text></g><g class="cls-15"><text class="cls-16" transform="translate(175.27 245.73)">7</text></g><g class="cls-15"><text class="cls-16" transform="translate(192.38 245.73)">8</text></g><g class="cls-15"><text class="cls-16" transform="translate(209.5 245.73)">9</text></g><g class="cls-15"><text class="cls-16" transform="translate(223.83 245.73)"><tspan class="cls-25">1</tspan><tspan x="5.53" y="0">0</tspan></text></g><g class="cls-15"><text class="cls-16" transform="translate(240.95 245.73)"><tspan class="cls-25">1</tspan><tspan x="5.53" y="0">1</tspan></text></g><g class="cls-15"><text class="cls-16" transform="translate(251.67 245.73)">N<tspan class="cls-26" x="7.19" y="0">o</tspan><tspan class="cls-27" x="12.82" y="0">on</tspan></text></g><g class="cls-15"><text class="cls-16" transform="translate(277.95 245.73)">1</text></g><g class="cls-15"><text class="cls-16" transform="translate(295.07 245.73)">2</text></g><g class="cls-15"><text class="cls-16" transform="translate(312.17 245.73)">3</text></g><g class="cls-15"><text class="cls-16" transform="translate(329.29 245.73)">4</text></g><g class="cls-15"><text class="cls-16" transform="translate(346.39 245.73)">5</text></g><g class="cls-15"><text class="cls-16" transform="translate(363.5 245.73)">6</text></g><g class="cls-15"><text class="cls-16" transform="translate(380.63 245.73)">7</text></g><g class="cls-15"><text class="cls-16" transform="translate(397.74 245.73)">8</text></g><g class="cls-15"><text class="cls-16" transform="translate(414.84 245.73)">9</text></g><g class="cls-15"><text class="cls-16" transform="translate(429.17 245.73)"><tspan class="cls-25">1</tspan><tspan x="5.53" y="0">0</tspan></text></g><g class="cls-15"><text class="cls-16" transform="translate(446.29 245.73)"><tspan class="cls-25">1</tspan><tspan x="5.53" y="0">1</tspan></text></g><g class="cls-15"><text class="cls-16" transform="matrix(0, -1, 1, 0, 19.95, 103.69)">s</text><text class="cls-16" transform="matrix(0, -1, 1, 0, 19.95, 109.23)">p</text><text class="cls-16" transform="matrix(0, -1, 1, 0, 19.95, 111.39)">i</text><text class="cls-16" transform="matrix(0, -1, 1, 0, 19.95, 114.73)">r</text><text class="cls-16" transform="matrix(0, -1, 1, 0, 19.95, 120.97)">T</text><text class="cls-16" transform="matrix(0, -1, 1, 0, 19.95, 123.94)"> </text><text class="cls-16" transform="matrix(0, -1, 1, 0, 19.95, 129.47)">e</text><text class="cls-16" transform="matrix(0, -1, 1, 0, 19.95, 131.64)">l</text><text class="cls-16" transform="matrix(0, -1, 1, 0, 19.95, 136.66)">c</text><text class="cls-16" transform="matrix(0, -1, 1, 0, 19.95, 138.83)">i</text><text class="cls-16" transform="matrix(0, -1, 1, 0, 19.95, 144.32)">h</text><text class="cls-16" transform="matrix(0, -1, 1, 0, 19.95, 149.86)">e</text><text class="cls-16" transform="matrix(0, -1, 1, 0, 19.95, 156.46)">V</text><text class="cls-16" transform="matrix(0, -1, 1, 0, 19.95, 159.22)"> </text><text class="cls-16" transform="matrix(0, -1, 1, 0, 19.95, 162.07)">f</text><text class="cls-16" transform="matrix(0, -1, 1, 0, 19.95, 167.61)">o</text><text class="cls-16" transform="matrix(0, -1, 1, 0, 19.95, 170.47)"> </text><text class="cls-16" transform="matrix(0, -1, 1, 0, 19.95, 173.24)">t</text><text class="cls-16" transform="matrix(0, -1, 1, 0, 19.95, 178.74)">n</text><text class="cls-16" transform="matrix(0, -1, 1, 0, 19.95, 184.27)">e</text><text class="cls-16" transform="matrix(0, -1, 1, 0, 19.95, 189.33)">c</text><text class="cls-16" transform="matrix(0, -1, 1, 0, 19.95, 192.65)">r</text><text class="cls-16" transform="matrix(0, -1, 1, 0, 19.95, 198.19)">e</text><text class="cls-16" transform="matrix(0, -1, 1, 0, 19.95, 204.79)">P</text></g><g class="cls-15"><text class="cls-16" transform="translate(240.79 261.74)"><tspan class="cls-28">S</tspan><tspan x="6.61" y="0">tart</tspan><tspan class="cls-29" x="21" y="0"> </tspan><tspan x="23.88" y="0">Hour </tspan></text></g><rect class="cls-6" x="16.29" y="264.27" width="443.48" height="15.14"/><rect class="cls-7" x="16.29" y="264.27" width="443.48" height="15.14"/><line class="cls-10" x1="23.8" y1="271.83" x2="43" y2="271.83"/><g class="cls-15"><text class="cls-16" transform="translate(45.06 275.03)">C<tspan class="cls-26" x="7.19" y="0">o</tspan><tspan x="12.82" y="0">m</tspan><tspan class="cls-28" x="21.12" y="0">m</tspan><tspan class="cls-17" x="29.39" y="0">u</tspan><tspan x="35" y="0">te</tspan></text></g><line class="cls-11" x1="95.49" y1="271.83" x2="114.7" y2="271.83"/><g class="cls-15"><text class="cls-16" transform="translate(116.77 275.03)"><tspan class="cls-30">S</tspan><tspan class="cls-31" x="6.71" y="0">h</tspan><tspan class="cls-32" x="12.25" y="0">o</tspan><tspan class="cls-17" x="17.75" y="0">p</tspan><tspan x="23.37" y="0">p</tspan><tspan class="cls-33" x="28.91" y="0">i</tspan><tspan class="cls-17" x="31.05" y="0">n</tspan><tspan class="cls-31" x="36.67" y="0">g/</tspan><tspan class="cls-34" x="44.98" y="0">E</tspan><tspan class="cls-35" x="51.66" y="0">r</tspan><tspan class="cls-36" x="55" y="0">r</tspan><tspan class="cls-37" x="58.24" y="0">a</tspan><tspan class="cls-31" x="63.85" y="0">n</tspan><tspan class="cls-38" x="69.39" y="0">d</tspan><tspan x="74.89" y="0">s</tspan></text></g><line class="cls-12" x1="203.89" y1="271.83" x2="223.1" y2="271.83"/><g class="cls-15"><text class="cls-16" transform="translate(225.17 275.03)"><tspan class="cls-30">S</tspan><tspan class="cls-39" x="6.71" y="0">c</tspan><tspan class="cls-40" x="11.64" y="0">h</tspan><tspan class="cls-27" x="17.26" y="0">o</tspan><tspan class="cls-32" x="22.8" y="0">o</tspan><tspan class="cls-41" x="28.3" y="0">l</tspan><tspan x="30.56" y="0">/Ch</tspan><tspan class="cls-42" x="46.06" y="0">u</tspan><tspan class="cls-35" x="51.66" y="0">r</tspan><tspan class="cls-43" x="55" y="0">c</tspan><tspan x="59.92" y="0">h</tspan></text></g><line class="cls-13" x1="297.83" y1="271.83" x2="317.04" y2="271.83"/><g class="cls-15"><text class="cls-16" transform="translate(319.13 275.03)"><tspan class="cls-44">S</tspan><tspan x="6.71" y="0">o</tspan><tspan class="cls-35" x="12.25" y="0">c</tspan><tspan class="cls-24" x="17.25" y="0">i</tspan><tspan x="19.42" y="0">a</tspan><tspan class="cls-45" x="24.95" y="0">l</tspan><tspan class="cls-46" x="27.2" y="0">/R</tspan><tspan class="cls-17" x="37.16" y="0">e</tspan><tspan class="cls-47" x="42.78" y="0">c</tspan><tspan class="cls-48" x="47.71" y="0">r</tspan><tspan x="51.04" y="0">e</tspan><tspan class="cls-42" x="56.58" y="0">a</tspan><tspan class="cls-46" x="62.18" y="0">t</tspan><tspan class="cls-43" x="64.95" y="0">i</tspan><tspan class="cls-17" x="67.1" y="0">o</tspan><tspan x="72.72" y="0">n</tspan><tspan class="cls-32" x="78.26" y="0">a</tspan><tspan x="83.76" y="0">l</tspan></text></g><line class="cls-14" x1="412.33" y1="271.83" x2="431.54" y2="271.83"/><g class="cls-15"><text class="cls-16" transform="translate(433.63 275.03)"><tspan class="cls-35">T</tspan><tspan class="cls-27" x="6.1" y="0">ot</tspan><tspan class="cls-42" x="14.41" y="0">a</tspan><tspan x="20.01" y="0">l</tspan></text></g><rect class="cls-7" x="0.13" y="12.57" width="468" height="270.75"/></g></g></svg>